<?xml version="1.0" encoding="UTF-8" standalone="no"?>
<svg
   xmlns:dc="http://purl.org/dc/elements/1.1/"
   xmlns:cc="http://creativecommons.org/ns#"
   xmlns:rdf="http://www.w3.org/1999/02/22-rdf-syntax-ns#"
   xmlns:svg="http://www.w3.org/2000/svg"
   xmlns="http://www.w3.org/2000/svg"
   xmlns:sodipodi="http://sodipodi.sourceforge.net/DTD/sodipodi-0.dtd"
   xmlns:inkscape="http://www.inkscape.org/namespaces/inkscape"
   version="1.1"
   viewBox="0 0 524.15894 707.03469"
   stroke-miterlimit="10"
   id="svg191"
   sodipodi:docname="TFMODEM01_multi_antenna_extension.svg"
   width="13.868371cm"
   height="18.706959cm"
   style="fill:none;stroke:none;stroke-linecap:square;stroke-miterlimit:10"
   inkscape:version="0.92.3 (2405546, 2018-03-11)">
  <metadata
     id="metadata197">
    <rdf:RDF>
      <cc:Work
         rdf:about="">
        <dc:format>image/svg+xml</dc:format>
        <dc:type
           rdf:resource="http://purl.org/dc/dcmitype/StillImage" />
        <dc:title></dc:title>
      </cc:Work>
    </rdf:RDF>
  </metadata>
  <defs
     id="defs195" />
  <sodipodi:namedview
     pagecolor="#ffffff"
     bordercolor="#666666"
     borderopacity="1"
     objecttolerance="10"
     gridtolerance="10"
     guidetolerance="10"
     inkscape:pageopacity="0"
     inkscape:pageshadow="2"
     inkscape:window-width="1853"
     inkscape:window-height="1052"
     id="namedview193"
     showgrid="false"
     units="cm"
     fit-margin-top="1"
     fit-margin-bottom="1"
     fit-margin-left="1"
     fit-margin-right="1"
     inkscape:zoom="0.65555556"
     inkscape:cx="444.44607"
     inkscape:cy="323.24283"
     inkscape:window-x="1147"
     inkscape:window-y="428"
     inkscape:window-maximized="1"
     inkscape:current-layer="g189" />
  <clipPath
     id="p.0">
    <path
       d="M 0,0 H 960 V 720 H 0 Z"
       id="path2"
       inkscape:connector-curvature="0"
       style="clip-rule:nonzero" />
  </clipPath>
  <g
     clip-path="url(#p.0)"
     id="g189"
     transform="translate(-360.70985,-4.1897855)">
    <path
       d="M 0,0 H 960 V 720 H 0 Z"
       id="path5"
       inkscape:connector-curvature="0"
       style="fill:#000000;fill-opacity:0;fill-rule:evenodd" />
    <path
       d="M 536.92126,292.27823 H 734.59057 V 411.08136 H 536.92126 Z"
       id="path7"
       inkscape:connector-curvature="0"
       style="fill:#cfe2f3;fill-rule:evenodd" />
    <path
       d="M 536.92126,292.27823 H 734.59057 V 411.08136 H 536.92126 Z"
       id="path9"
       inkscape:connector-curvature="0"
       style="fill-rule:evenodd;stroke:#000000;stroke-width:1;stroke-linecap:butt;stroke-linejoin:round" />
    <path
       d="M 536.92126,456.5955 H 734.59057 V 564.94197 H 536.92126 Z"
       id="path11"
       inkscape:connector-curvature="0"
       style="fill:#cfe2f3;fill-rule:evenodd" />
    <path
       d="M 536.92126,456.5955 H 734.59057 V 564.94197 H 536.92126 Z"
       id="path13"
       inkscape:connector-curvature="0"
       style="fill-rule:evenodd;stroke:#000000;stroke-width:1;stroke-linecap:butt;stroke-linejoin:round" />
    <path
       d="m 564.8268,315.67978 h 141.85828 v 72 H 564.8268 Z"
       id="path15"
       inkscape:connector-curvature="0"
       style="fill:#000000;fill-opacity:0;fill-rule:evenodd" />
    <path
       d="m 577.6258,358.5998 v -13.35937 h 5.92188 q 1.78125,0 2.70312,0.35937 0.9375,0.35938 1.48438,1.28125 0.5625,0.90625 0.5625,2.01563 0,1.40625 -0.92188,2.39062 -0.92187,0.96875 -2.84375,1.23438 0.70313,0.34375 1.07813,0.67187 0.76562,0.70313 1.45312,1.76563 l 2.32813,3.64062 h -2.21875 l -1.76563,-2.78125 q -0.78125,-1.20312 -1.28125,-1.82812 -0.5,-0.64063 -0.90625,-0.89063 -0.39062,-0.26562 -0.79687,-0.35937 -0.29688,-0.0781 -0.98438,-0.0781 h -2.04687 v 5.9375 z m 1.76563,-7.45312 h 3.79687 q 1.21875,0 1.89063,-0.25 0.6875,-0.26563 1.04687,-0.8125 0.35938,-0.54688 0.35938,-1.1875 0,-0.95313 -0.6875,-1.5625 -0.6875,-0.60938 -2.1875,-0.60938 h -4.21875 z m 11.76977,7.45312 v -13.35937 h 9.01562 v 1.57812 h -7.25 v 4.14063 h 6.26563 v 1.57812 h -6.26563 v 6.0625 z m 10.7085,-4.29687 1.65625,-0.14063 q 0.125,1 0.54687,1.64063 0.4375,0.64062 1.34375,1.04687 0.92188,0.39063 2.0625,0.39063 1,0 1.78125,-0.29688 0.78125,-0.29687 1.15625,-0.8125 0.375,-0.53125 0.375,-1.15625 0,-0.625 -0.375,-1.09375 -0.35937,-0.46875 -1.1875,-0.79687 -0.54687,-0.20313 -2.39062,-0.64063 -1.82813,-0.45312 -2.5625,-0.84375 -0.96875,-0.5 -1.4375,-1.23437 -0.46875,-0.75 -0.46875,-1.67188 0,-1 0.57812,-1.875 0.57813,-0.89062 1.67188,-1.34375 1.10937,-0.45312 2.45312,-0.45312 1.48438,0 2.60938,0.48437 1.14062,0.46875 1.75,1.40625 0.60937,0.92188 0.65625,2.09375 l -1.6875,0.125 q -0.14063,-1.26562 -0.9375,-1.90625 -0.78125,-0.65625 -2.3125,-0.65625 -1.60938,0 -2.34375,0.59375 -0.73438,0.59375 -0.73438,1.42188 0,0.71875 0.53125,1.17187 0.5,0.46875 2.65625,0.96875 2.15625,0.48438 2.95313,0.84375 1.17187,0.53125 1.71875,1.35938 0.5625,0.82812 0.5625,1.90625 0,1.0625 -0.60938,2.01562 -0.60937,0.9375 -1.75,1.46875 -1.14062,0.51563 -2.57812,0.51563 -1.8125,0 -3.04688,-0.53125 -1.21875,-0.53125 -1.92187,-1.59375 -0.6875,-1.0625 -0.71875,-2.40625 z m 15.36547,4.29687 -3.53125,-13.35937 h 1.8125 l 2.03125,8.76562 q 0.32813,1.375 0.5625,2.71875 0.5,-2.14062 0.59375,-2.46875 l 2.54688,-9.01562 h 2.125 l 1.92187,6.76562 q 0.71875,2.51563 1.03125,4.71875 0.26563,-1.26562 0.67188,-2.89062 l 2.09375,-8.59375 h 1.78125 l -3.67188,13.35937 h -1.70312 l -2.8125,-10.17187 q -0.35938,-1.28125 -0.42188,-1.5625 -0.20312,0.90625 -0.39062,1.5625 l -2.82813,10.17187 z m 15.5774,0 v -13.35937 h 1.76562 v 13.35937 z m 8.29266,0 v -11.78125 h -4.40625 v -1.57812 h 10.57813 v 1.57812 h -4.40625 v 11.78125 z m 17.521,-4.6875 1.76562,0.45313 q -0.5625,2.17187 -2,3.32812 -1.4375,1.14063 -3.53125,1.14063 -2.15625,0 -3.51562,-0.875 -1.34375,-0.89063 -2.0625,-2.54688 -0.70313,-1.67187 -0.70313,-3.59375 0,-2.07812 0.79688,-3.625 0.79687,-1.5625 2.26562,-2.35937 1.48438,-0.8125 3.25,-0.8125 2,0 3.35938,1.01562 1.375,1.01563 1.90625,2.875 l -1.73438,0.40625 q -0.46875,-1.45312 -1.35937,-2.10937 -0.875,-0.67188 -2.20313,-0.67188 -1.54687,0 -2.57812,0.73438 -1.03125,0.73437 -1.45313,1.98437 -0.42187,1.23438 -0.42187,2.5625 0,1.70313 0.5,2.96875 0.5,1.26563 1.54687,1.90625 1.04688,0.625 2.26563,0.625 1.48437,0 2.51562,-0.85937 1.03125,-0.85938 1.39063,-2.54688 z m 4.00421,4.6875 v -13.35937 h 1.76562 v 5.48437 h 6.9375 v -5.48437 h 1.76563 v 13.35937 h -1.76563 v -6.29687 h -6.9375 v 6.29687 z m 12.75415,-6.59375 q 0,-2.35937 0.48437,-3.79687 0.48438,-1.45313 1.4375,-2.23438 0.96875,-0.78125 2.42188,-0.78125 1.07812,0 1.89062,0.4375 0.8125,0.42188 1.32813,1.25 0.53125,0.8125 0.82812,1.98438 0.3125,1.15625 0.3125,3.14062 0,2.35938 -0.48437,3.8125 -0.48438,1.4375 -1.45313,2.23438 -0.95312,0.78125 -2.42187,0.78125 -1.92188,0 -3.03125,-1.39063 -1.3125,-1.67187 -1.3125,-5.4375 z m 1.67187,0 q 0,3.29688 0.76563,4.39063 0.78125,1.07812 1.90625,1.07812 1.14062,0 1.90625,-1.09375 0.76562,-1.09375 0.76562,-4.375 0,-3.29687 -0.76562,-4.375 -0.76563,-1.07812 -1.92188,-1.07812 -1.125,0 -1.79687,0.95312 -0.85938,1.21875 -0.85938,4.5 z m 14.87574,6.59375 h -1.64063 v -10.45312 q -0.59375,0.5625 -1.5625,1.14062 -0.95312,0.5625 -1.71875,0.84375 v -1.59375 q 1.375,-0.64062 2.40625,-1.5625 1.03125,-0.92187 1.45313,-1.78125 h 1.0625 z"
       id="path17"
       inkscape:connector-curvature="0"
       style="fill:#000000;fill-rule:nonzero" />
    <path
       d="m 572.45404,408.5223 c 0,12.0184 1.48822,18.0289 2.97638,24.03677 1.48822,6.00788 2.97638,12.01313 2.97638,24.02622"
       id="path19"
       inkscape:connector-curvature="0"
       style="fill:#000000;fill-opacity:0;fill-rule:evenodd" />
    <path
       d="m 572.45404,408.5223 c 0,12.01837 1.48822,18.0289 2.97638,24.03677 0.74414,3.00394 1.48822,6.00724 2.04626,9.76114 0.27906,1.87696 0.5116,3.94159 0.67438,6.28781 0.0814,1.1731 0.14533,2.41663 0.18891,3.74225 l 0.0231,0.80823"
       id="path21"
       inkscape:connector-curvature="0"
       style="fill-rule:evenodd;stroke:#000000;stroke-width:1;stroke-linecap:butt;stroke-linejoin:round" />
    <path
       d="m 578.36304,453.1585 -1.13886,-1.11014 1.16401,3.07514 1.08502,-3.10385 z"
       id="path23"
       inkscape:connector-curvature="0"
       style="fill:#000000;fill-rule:evenodd;stroke:#000000;stroke-width:1;stroke-linecap:butt" />
    <path
       d="m 695.66144,410.04462 c 0,11.63779 0.55902,17.4567 1.1181,23.2756 0.55902,5.81888 1.11811,11.63779 1.11811,23.27558"
       id="path25"
       inkscape:connector-curvature="0"
       style="fill:#000000;fill-opacity:0;fill-rule:evenodd" />
    <path
       d="m 695.6802,413.47165 0.006,0.67575 c 0.0164,1.28424 0.0404,2.48892 0.071,3.62546 0.0611,2.27298 0.14844,4.27322 0.25324,6.09164 0.20965,3.63681 0.48919,6.54627 0.76874,9.45572 0.55902,5.81888 1.1181,11.63779 1.1181,23.27558"
       id="path27"
       inkscape:connector-curvature="0"
       style="fill-rule:evenodd;stroke:#000000;stroke-width:1;stroke-linecap:butt;stroke-linejoin:round" />
    <path
       d="m 695.6802,413.47165 1.13074,1.11841 -1.14148,-3.08356 -1.10767,3.09589 z"
       id="path29"
       inkscape:connector-curvature="0"
       style="fill:#000000;fill-rule:evenodd;stroke:#000000;stroke-width:1;stroke-linecap:butt" />
    <path
       d="m 589.1575,487.83203 h 93.19684 V 543.1391 H 589.1575 Z"
       id="path31"
       inkscape:connector-curvature="0"
       style="fill:#000000;fill-opacity:0;fill-rule:evenodd" />
    <path
       d="m 604.30896,522.4056 v -13.35941 h 1.76562 v 13.35941 z m 4.29266,-4.29687 1.65625,-0.14063 q 0.125,1 0.54688,1.64063 0.4375,0.64062 1.34375,1.04687 0.92187,0.39063 2.0625,0.39063 1,0 1.78125,-0.29688 0.78125,-0.29687 1.15625,-0.8125 0.375,-0.53125 0.375,-1.15625 0,-0.625 -0.375,-1.09375 -0.35938,-0.46875 -1.1875,-0.79687 -0.54688,-0.20313 -2.39063,-0.64063 -1.82812,-0.45312 -2.5625,-0.84375 -0.96875,-0.5 -1.4375,-1.23437 -0.46875,-0.75 -0.46875,-1.67188 0,-1.00003 0.57813,-1.87503 0.57812,-0.89063 1.67187,-1.34375 1.10938,-0.45313 2.45313,-0.45313 1.48437,0 2.60937,0.48438 1.14063,0.46875 1.75,1.40625 0.60938,0.92187 0.65625,2.09378 l -1.6875,0.125 q -0.14062,-1.26566 -0.9375,-1.90628 -0.78125,-0.65625 -2.3125,-0.65625 -1.60937,0 -2.34375,0.59375 -0.73437,0.59375 -0.73437,1.42191 0,0.71875 0.53125,1.17187 0.5,0.46875 2.65625,0.96875 2.15625,0.48438 2.95312,0.84375 1.17188,0.53125 1.71875,1.35938 0.5625,0.82812 0.5625,1.90625 0,1.0625 -0.60937,2.01562 -0.60938,0.9375 -1.75,1.46875 -1.14063,0.51563 -2.57813,0.51563 -1.8125,0 -3.04687,-0.53125 -1.21875,-0.53125 -1.92188,-1.59375 -0.6875,-1.0625 -0.71875,-2.40625 z m 12.99042,4.29687 v -13.35941 h 2.65625 l 3.15625,9.45316 q 0.4375,1.32813 0.64063,1.98438 0.23437,-0.73438 0.70312,-2.14063 l 3.20313,-9.29691 h 2.375 v 13.35941 h -1.70313 v -11.17191 l -3.875,11.17191 h -1.59375 l -3.85937,-11.37503 v 11.37503 z m 14.93146,-6.59375 q 0,-2.35937 0.48437,-3.79687 0.48438,-1.45316 1.4375,-2.23441 0.96875,-0.78125 2.42188,-0.78125 1.07812,0 1.89062,0.4375 0.8125,0.42187 1.32813,1.25 0.53125,0.8125 0.82812,1.98441 0.3125,1.15625 0.3125,3.14062 0,2.35938 -0.48437,3.8125 -0.48438,1.4375 -1.45313,2.23438 -0.95312,0.78125 -2.42187,0.78125 -1.92188,0 -3.03125,-1.39063 -1.3125,-1.67187 -1.3125,-5.4375 z m 1.67187,0 q 0,3.29688 0.76563,4.39063 0.78125,1.07812 1.90625,1.07812 1.14062,0 1.90625,-1.09375 0.76562,-1.09375 0.76562,-4.375 0,-3.29687 -0.76562,-4.37503 -0.76563,-1.07813 -1.92188,-1.07813 -1.125,0 -1.79687,0.95313 -0.85938,1.21878 -0.85938,4.50003 z m 14.87574,6.59375 h -1.64063 v -10.45316 q -0.59375,0.56254 -1.5625,1.14066 -0.95312,0.5625 -1.71875,0.84375 v -1.59375 q 1.375,-0.64066 2.40625,-1.56253 1.03125,-0.92188 1.45313,-1.78125 h 1.0625 z m 3.39129,0 5.125,-13.35941 h 1.90625 l 5.46875,13.35941 h -2.01562 l -1.54688,-4.04687 h -5.59375 l -1.46875,4.04687 z m 3.85938,-5.48437 h 4.53125 l -1.40625,-3.70313 q -0.625,-1.68753 -0.9375,-2.76566 -0.26563,1.28125 -0.71875,2.54691 z"
       id="path33"
       inkscape:connector-curvature="0"
       style="fill:#000000;fill-rule:nonzero" />
    <path
       d="m 553.3202,456.5958 h 50.17322 v 40.97638 H 553.3202 Z"
       id="path35"
       inkscape:connector-curvature="0"
       style="fill:#000000;fill-opacity:0;fill-rule:evenodd" />
    <path
       d="m 563.78894,483.5158 v -13.35937 h 5.92188 q 1.78125,0 2.70312,0.35937 0.9375,0.35938 1.48438,1.28125 0.5625,0.90625 0.5625,2.01563 0,1.40625 -0.92188,2.39062 -0.92187,0.96875 -2.84375,1.23438 0.70313,0.34375 1.07813,0.67187 0.76562,0.70313 1.45312,1.76563 l 2.32813,3.64062 h -2.21875 l -1.76563,-2.78125 q -0.78125,-1.20312 -1.28125,-1.82812 -0.5,-0.64063 -0.90625,-0.89063 -0.39062,-0.26562 -0.79687,-0.35937 -0.29688,-0.0781 -0.98438,-0.0781 h -2.04687 v 5.9375 z m 1.76563,-7.45312 h 3.79687 q 1.21875,0 1.89063,-0.25 0.6875,-0.26563 1.04687,-0.8125 0.35938,-0.54688 0.35938,-1.1875 0,-0.95313 -0.6875,-1.5625 -0.6875,-0.60938 -2.1875,-0.60938 h -4.21875 z m 10.31671,7.45312 5.17187,-6.95312 -4.5625,-6.40625 h 2.10938 l 2.42187,3.4375 q 0.75,1.0625 1.07813,1.625 0.4375,-0.71875 1.04687,-1.51563 l 2.6875,-3.54687 h 1.92188 l -4.6875,6.29687 5.0625,7.0625 h -2.1875 l -3.35938,-4.76562 q -0.28125,-0.40625 -0.59375,-0.89063 -0.4375,0.73438 -0.625,1 l -3.35937,4.65625 z"
       id="path37"
       inkscape:connector-curvature="0"
       style="fill:#000000;fill-rule:nonzero" />
    <path
       d="m 672.81104,456.5958 h 50.17322 v 40.97638 h -50.17322 z"
       id="path39"
       inkscape:connector-curvature="0"
       style="fill:#000000;fill-opacity:0;fill-rule:evenodd" />
    <path
       d="m 686.6548,483.5158 v -11.78125 h -4.40625 v -1.57812 h 10.57813 v 1.57812 h -4.40625 v 11.78125 z m 6.63037,0 5.17188,-6.95312 -4.5625,-6.40625 h 2.10937 l 2.42188,3.4375 q 0.75,1.0625 1.07812,1.625 0.4375,-0.71875 1.04688,-1.51563 l 2.6875,-3.54687 h 1.92187 l -4.6875,6.29687 5.0625,7.0625 h -2.1875 l -3.35937,-4.76562 q -0.28125,-0.40625 -0.59375,-0.89063 -0.4375,0.73438 -0.625,1 l -3.35938,4.65625 z"
       id="path41"
       inkscape:connector-curvature="0"
       style="fill:#000000;fill-rule:nonzero" />
    <path
       d="m 538.3123,292.27823 h 80.18903 v 40.97638 H 538.3123 Z"
       id="path43"
       inkscape:connector-curvature="0"
       style="fill:#000000;fill-opacity:0;fill-rule:evenodd" />
    <path
       d="m 548.78107,319.1982 v -13.35938 h 5.92187 q 1.78125,0 2.70313,0.35938 0.9375,0.35937 1.48437,1.28125 0.5625,0.90625 0.5625,2.01562 0,1.40625 -0.92187,2.39063 -0.92188,0.96875 -2.84375,1.23437 0.70312,0.34375 1.07812,0.67188 0.76563,0.70312 1.45313,1.76562 l 2.32812,3.64063 h -2.21875 l -1.76562,-2.78125 q -0.78125,-1.20313 -1.28125,-1.82813 -0.5,-0.64062 -0.90625,-0.89062 -0.39063,-0.26563 -0.79688,-0.35938 -0.29687,-0.0781 -0.98437,-0.0781 h -2.04688 v 5.9375 z m 1.76562,-7.45313 h 3.79688 q 1.21875,0 1.89062,-0.25 0.6875,-0.26562 1.04688,-0.8125 0.35937,-0.54687 0.35937,-1.1875 0,-0.95312 -0.6875,-1.5625 -0.6875,-0.60937 -2.1875,-0.60937 h -4.21875 z m 10.31672,7.45313 5.17187,-6.95313 -4.5625,-6.40625 h 2.10938 l 2.42187,3.4375 q 0.75,1.0625 1.07813,1.625 0.4375,-0.71875 1.04687,-1.51562 l 2.6875,-3.54688 h 1.92188 l -4.6875,6.29688 5.0625,7.0625 h -2.1875 l -3.35938,-4.76563 q -0.28125,-0.40625 -0.59375,-0.89062 -0.4375,0.73437 -0.625,1 l -3.35937,4.65625 z m 12.36547,0.23437 3.875,-13.8125 h 1.3125 l -3.85937,13.8125 z m 10.02704,-0.23437 v -11.78125 h -4.40625 v -1.57813 h 10.57813 v 1.57813 h -4.40625 v 11.78125 z m 6.63037,0 5.17188,-6.95313 -4.5625,-6.40625 h 2.10937 l 2.42188,3.4375 q 0.75,1.0625 1.07812,1.625 0.4375,-0.71875 1.04688,-1.51562 l 2.6875,-3.54688 h 1.92187 l -4.6875,6.29688 5.0625,7.0625 h -2.1875 l -3.35937,-4.76563 q -0.28125,-0.40625 -0.59375,-0.89062 -0.4375,0.73437 -0.625,1 l -3.35938,4.65625 z"
       id="path45"
       inkscape:connector-curvature="0"
       style="fill:#000000;fill-rule:nonzero" />
    <path
       d="m 649.937,292.27823 h 80.18896 v 40.97638 H 649.937 Z"
       id="path47"
       inkscape:connector-curvature="0"
       style="fill:#000000;fill-opacity:0;fill-rule:evenodd" />
    <path
       d="m 660.40576,319.1982 v -13.35938 h 5.92187 q 1.78125,0 2.70313,0.35938 0.9375,0.35937 1.48437,1.28125 0.5625,0.90625 0.5625,2.01562 0,1.40625 -0.92187,2.39063 -0.92188,0.96875 -2.84375,1.23437 0.70312,0.34375 1.07812,0.67188 0.76563,0.70312 1.45313,1.76562 l 2.32812,3.64063 h -2.21875 l -1.76562,-2.78125 q -0.78125,-1.20313 -1.28125,-1.82813 -0.5,-0.64062 -0.90625,-0.89062 -0.39063,-0.26563 -0.79688,-0.35938 -0.29687,-0.0781 -0.98437,-0.0781 h -2.04688 v 5.9375 z m 1.76562,-7.45313 h 3.79688 q 1.21875,0 1.89062,-0.25 0.6875,-0.26562 1.04688,-0.8125 0.35937,-0.54687 0.35937,-1.1875 0,-0.95312 -0.6875,-1.5625 -0.6875,-0.60937 -2.1875,-0.60937 h -4.21875 z m 10.31672,7.45313 5.17187,-6.95313 -4.5625,-6.40625 h 2.10938 l 2.42187,3.4375 q 0.75,1.0625 1.07813,1.625 0.4375,-0.71875 1.04687,-1.51562 l 2.6875,-3.54688 h 1.92188 l -4.6875,6.29688 5.0625,7.0625 h -2.1875 l -3.35938,-4.76563 q -0.28125,-0.40625 -0.59375,-0.89062 -0.4375,0.73437 -0.625,1 l -3.35937,4.65625 z m 12.36541,0.23437 3.875,-13.8125 h 1.3125 l -3.85937,13.8125 z m 10.02704,-0.23437 v -11.78125 h -4.40625 v -1.57813 h 10.57813 v 1.57813 h -4.40625 v 11.78125 z m 6.63037,0 5.17188,-6.95313 -4.5625,-6.40625 h 2.10937 l 2.42188,3.4375 q 0.75,1.0625 1.07812,1.625 0.4375,-0.71875 1.04688,-1.51562 l 2.6875,-3.54688 h 1.92187 l -4.6875,6.29688 5.0625,7.0625 h -2.1875 l -3.35937,-4.76563 q -0.28125,-0.40625 -0.59375,-0.89062 -0.4375,0.73437 -0.625,1 l -3.35938,4.65625 z"
       id="path49"
       inkscape:connector-curvature="0"
       style="fill:#000000;fill-rule:nonzero" />
    <path
       d="m 679.95276,369.08136 h 50.17322 v 40.97638 h -50.17322 z"
       id="path51"
       inkscape:connector-curvature="0"
       style="fill:#000000;fill-opacity:0;fill-rule:evenodd" />
    <path
       d="m 693.7965,396.00137 v -11.78125 h -4.40625 v -1.57813 h 10.57813 v 1.57813 h -4.40625 v 11.78125 z m 6.63037,0 5.17188,-6.95313 -4.5625,-6.40625 h 2.10937 l 2.42188,3.4375 q 0.75,1.0625 1.07812,1.625 0.4375,-0.71875 1.04688,-1.51562 l 2.6875,-3.54688 h 1.92187 l -4.6875,6.29688 5.0625,7.0625 h -2.1875 L 707.13,391.23574 q -0.28125,-0.40625 -0.59375,-0.89062 -0.4375,0.73437 -0.625,1 l -3.35938,4.65625 z"
       id="path53"
       inkscape:connector-curvature="0"
       style="fill:#000000;fill-rule:nonzero" />
    <path
       d="M 690.0315,292.27823 815.48029,225.16011"
       id="path55"
       inkscape:connector-curvature="0"
       style="fill:#000000;fill-opacity:0;fill-rule:evenodd" />
    <path
       d="M 693.0532,290.6615 812.45853,226.77683"
       id="path57"
       inkscape:connector-curvature="0"
       style="fill-rule:evenodd;stroke:#000000;stroke-width:1;stroke-linecap:butt;stroke-linejoin:round" />
    <path
       d="m 693.0533,290.6615 0.46106,-1.52209 -2.19385,2.44915 3.25488,-0.466 z"
       id="path59"
       inkscape:connector-curvature="0"
       style="fill:#000000;fill-rule:evenodd;stroke:#000000;stroke-width:1;stroke-linecap:butt" />
    <path
       d="m 812.45856,226.77682 -0.46106,1.52211 2.19379,-2.44917 -3.25482,0.466 z"
       id="path61"
       inkscape:connector-curvature="0"
       style="fill:#000000;fill-rule:evenodd;stroke:#000000;stroke-width:1;stroke-linecap:butt" />
    <path
       d="M 578.4068,292.27823 567.98163,225.16011"
       id="path63"
       inkscape:connector-curvature="0"
       style="fill:#000000;fill-opacity:0;fill-rule:evenodd" />
    <path
       d="m 577.8808,288.89172 -9.37317,-60.34514"
       id="path65"
       inkscape:connector-curvature="0"
       style="fill-rule:evenodd;stroke:#000000;stroke-width:1;stroke-linecap:butt;stroke-linejoin:round" />
    <path
       d="m 577.8808,288.89172 -1.28387,-0.93863 1.58551,2.88056 0.63702,-3.22577 z"
       id="path67"
       inkscape:connector-curvature="0"
       style="fill:#000000;fill-rule:evenodd;stroke:#000000;stroke-width:1;stroke-linecap:butt" />
    <path
       d="m 568.5076,228.54659 1.28387,0.93864 -1.58551,-2.88053 -0.63702,3.22575 z"
       id="path69"
       inkscape:connector-curvature="0"
       style="fill:#000000;fill-rule:evenodd;stroke:#000000;stroke-width:1;stroke-linecap:butt" />
    <path
       d="m 547.36743,367.54593 h 50.17328 v 40.97638 h -50.17328 z"
       id="path71"
       inkscape:connector-curvature="0"
       style="fill:#000000;fill-opacity:0;fill-rule:evenodd" />
    <path
       d="m 557.8362,394.46594 v -13.35938 h 5.92187 q 1.78125,0 2.70313,0.35938 0.9375,0.35937 1.48437,1.28125 0.5625,0.90625 0.5625,2.01562 0,1.40625 -0.92187,2.39063 -0.92188,0.96875 -2.84375,1.23437 0.70312,0.34375 1.07812,0.67188 0.76563,0.70312 1.45313,1.76562 l 2.32812,3.64063 h -2.21875 l -1.76562,-2.78125 q -0.78125,-1.20313 -1.28125,-1.82813 -0.5,-0.64062 -0.90625,-0.89062 -0.39063,-0.26563 -0.79688,-0.35938 -0.29687,-0.0781 -0.98437,-0.0781 h -2.04688 v 5.9375 z m 1.76562,-7.45313 h 3.79688 q 1.21875,0 1.89062,-0.25 0.6875,-0.26562 1.04688,-0.8125 0.35937,-0.54687 0.35937,-1.1875 0,-0.95312 -0.6875,-1.5625 -0.6875,-0.60937 -2.1875,-0.60937 h -4.21875 z m 10.31672,7.45313 5.17187,-6.95313 -4.5625,-6.40625 h 2.10938 l 2.42187,3.4375 q 0.75,1.0625 1.07813,1.625 0.4375,-0.71875 1.04687,-1.51562 l 2.6875,-3.54688 h 1.92188 l -4.6875,6.29688 5.0625,7.0625 h -2.1875 l -3.35938,-4.76563 q -0.28125,-0.40625 -0.59375,-0.89062 -0.4375,0.73437 -0.625,1 l -3.35937,4.65625 z"
       id="path73"
       inkscape:connector-curvature="0"
       style="fill:#000000;fill-rule:nonzero" />
    <path
       d="M 399.8714,107.37795 H 597.54071 V 226.1811 H 399.8714 Z"
       id="path75"
       inkscape:connector-curvature="0"
       style="fill:#cfe2f3;fill-rule:evenodd" />
    <path
       d="M 399.8714,107.37795 H 597.54071 V 226.1811 H 399.8714 Z"
       id="path77"
       inkscape:connector-curvature="0"
       style="fill-rule:evenodd;stroke:#000000;stroke-width:1;stroke-linecap:butt;stroke-linejoin:round" />
    <path
       d="M 427.77692,130.77953 H 569.6352 v 72 H 427.77692 Z"
       id="path79"
       inkscape:connector-curvature="0"
       style="fill:#000000;fill-opacity:0;fill-rule:evenodd" />
    <path
       d="m 440.5759,173.69952 v -13.35938 h 5.92187 q 1.78125,0 2.70313,0.35938 0.9375,0.35937 1.48437,1.28125 0.5625,0.90625 0.5625,2.01562 0,1.40625 -0.92187,2.39063 -0.92188,0.96875 -2.84375,1.23437 0.70312,0.34375 1.07812,0.67188 0.76563,0.70312 1.45313,1.76562 l 2.32812,3.64063 h -2.21875 l -1.76562,-2.78125 q -0.78125,-1.20313 -1.28125,-1.82813 -0.5,-0.64062 -0.90625,-0.89062 -0.39063,-0.26563 -0.79688,-0.35938 -0.29687,-0.0781 -0.98437,-0.0781 h -2.04688 v 5.9375 z m 1.76562,-7.45313 h 3.79688 q 1.21875,0 1.89062,-0.25 0.6875,-0.26562 1.04688,-0.8125 0.35937,-0.54687 0.35937,-1.1875 0,-0.95312 -0.6875,-1.5625 -0.6875,-0.60937 -2.1875,-0.60937 h -4.21875 z m 11.76984,7.45313 v -13.35938 h 9.01563 v 1.57813 h -7.25 v 4.14062 h 6.26562 v 1.57813 h -6.26562 v 6.0625 z m 10.70847,-4.29688 1.65625,-0.14062 q 0.125,1 0.54687,1.64062 0.4375,0.64063 1.34375,1.04688 0.92188,0.39062 2.0625,0.39062 1,0 1.78125,-0.29687 0.78125,-0.29688 1.15625,-0.8125 0.375,-0.53125 0.375,-1.15625 0,-0.625 -0.375,-1.09375 -0.35937,-0.46875 -1.1875,-0.79688 -0.54687,-0.20312 -2.39062,-0.64062 -1.82813,-0.45313 -2.5625,-0.84375 -0.96875,-0.5 -1.4375,-1.23438 -0.46875,-0.75 -0.46875,-1.67187 0,-1 0.57812,-1.875 0.57813,-0.89063 1.67188,-1.34375 1.10937,-0.45313 2.45312,-0.45313 1.48438,0 2.60938,0.48438 1.14062,0.46875 1.75,1.40625 0.60937,0.92187 0.65625,2.09375 l -1.6875,0.125 q -0.14063,-1.26563 -0.9375,-1.90625 -0.78125,-0.65625 -2.3125,-0.65625 -1.60938,0 -2.34375,0.59375 -0.73438,0.59375 -0.73438,1.42187 0,0.71875 0.53125,1.17188 0.5,0.46875 2.65625,0.96875 2.15625,0.48437 2.95313,0.84375 1.17187,0.53125 1.71875,1.35937 0.5625,0.82813 0.5625,1.90625 0,1.0625 -0.60938,2.01563 -0.60937,0.9375 -1.75,1.46875 -1.14062,0.51562 -2.57812,0.51562 -1.8125,0 -3.04688,-0.53125 -1.21875,-0.53125 -1.92187,-1.59375 -0.6875,-1.0625 -0.71875,-2.40625 z m 15.36544,4.29688 -3.53125,-13.35938 h 1.8125 l 2.03125,8.76563 q 0.32813,1.375 0.5625,2.71875 0.5,-2.14063 0.59375,-2.46875 l 2.54688,-9.01563 h 2.125 l 1.92187,6.76563 q 0.71875,2.51562 1.03125,4.71875 0.26563,-1.26563 0.67188,-2.89063 l 2.09375,-8.59375 h 1.78125 l -3.67188,13.35938 h -1.70312 l -2.8125,-10.17188 q -0.35938,-1.28125 -0.42188,-1.5625 -0.20312,0.90625 -0.39062,1.5625 l -2.82813,10.17188 z m 15.57743,0 v -13.35938 h 1.76562 v 13.35938 z m 8.29266,0 v -11.78125 h -4.40625 v -1.57813 h 10.57813 v 1.57813 h -4.40625 v 11.78125 z m 17.521,-4.6875 1.76562,0.45312 q -0.5625,2.17188 -2,3.32813 -1.4375,1.14062 -3.53125,1.14062 -2.15625,0 -3.51562,-0.875 -1.34375,-0.89062 -2.0625,-2.54687 -0.70313,-1.67188 -0.70313,-3.59375 0,-2.07813 0.79688,-3.625 0.79687,-1.5625 2.26562,-2.35938 1.48438,-0.8125 3.25,-0.8125 2,0 3.35938,1.01563 1.375,1.01562 1.90625,2.875 l -1.73438,0.40625 q -0.46875,-1.45313 -1.35937,-2.10938 -0.875,-0.67187 -2.20313,-0.67187 -1.54687,0 -2.57812,0.73437 -1.03125,0.73438 -1.45313,1.98438 -0.42187,1.23437 -0.42187,2.5625 0,1.70312 0.5,2.96875 0.5,1.26562 1.54687,1.90625 1.04688,0.625 2.26563,0.625 1.48437,0 2.51562,-0.85938 1.03125,-0.85937 1.39063,-2.54687 z m 4.00421,4.6875 v -13.35938 h 1.76562 v 5.48438 h 6.9375 v -5.48438 h 1.76563 v 13.35938 h -1.76563 v -6.29688 h -6.9375 v 6.29688 z m 12.75415,-6.59375 q 0,-2.35938 0.48437,-3.79688 0.48438,-1.45312 1.4375,-2.23437 0.96875,-0.78125 2.42188,-0.78125 1.07812,0 1.89062,0.4375 0.8125,0.42187 1.32813,1.25 0.53125,0.8125 0.82812,1.98437 0.3125,1.15625 0.3125,3.14063 0,2.35937 -0.48437,3.8125 -0.48438,1.4375 -1.45313,2.23437 -0.95312,0.78125 -2.42187,0.78125 -1.92188,0 -3.03125,-1.39062 -1.3125,-1.67188 -1.3125,-5.4375 z m 1.67187,0 q 0,3.29687 0.76563,4.39062 0.78125,1.07813 1.90625,1.07813 1.14062,0 1.90625,-1.09375 0.76562,-1.09375 0.76562,-4.375 0,-3.29688 -0.76562,-4.375 -0.76563,-1.07813 -1.92188,-1.07813 -1.125,0 -1.79687,0.95313 -0.85938,1.21875 -0.85938,4.5 z m 14.87574,6.59375 h -1.64063 v -10.45313 q -0.59375,0.5625 -1.5625,1.14063 -0.95312,0.5625 -1.71875,0.84375 v -1.59375 q 1.375,-0.64063 2.40625,-1.5625 1.03125,-0.92188 1.45313,-1.78125 h 1.0625 z"
       id="path81"
       inkscape:connector-curvature="0"
       style="fill:#000000;fill-rule:nonzero" />
    <path
       d="m 401.26248,107.37795 h 80.18896 v 40.97637 h -80.18896 z"
       id="path83"
       inkscape:connector-curvature="0"
       style="fill:#000000;fill-opacity:0;fill-rule:evenodd" />
    <path
       d="m 411.73123,134.29796 v -13.35938 h 5.92187 q 1.78125,0 2.70313,0.35937 0.9375,0.35938 1.48437,1.28125 0.5625,0.90625 0.5625,2.01563 0,1.40625 -0.92187,2.39062 -0.92188,0.96875 -2.84375,1.23438 0.70312,0.34375 1.07812,0.67188 0.76563,0.70312 1.45313,1.76562 l 2.32812,3.64063 h -2.21875 l -1.76562,-2.78125 q -0.78125,-1.20313 -1.28125,-1.82813 -0.5,-0.64062 -0.90625,-0.89062 -0.39063,-0.26563 -0.79688,-0.35938 -0.29687,-0.0781 -0.98437,-0.0781 h -2.04688 v 5.9375 z m 1.76562,-7.45313 h 3.79688 q 1.21875,0 1.89062,-0.25 0.6875,-0.26563 1.04688,-0.8125 0.35937,-0.54688 0.35937,-1.1875 0,-0.95313 -0.6875,-1.5625 -0.6875,-0.60938 -2.1875,-0.60938 h -4.21875 z m 10.31669,7.45313 5.17187,-6.95313 -4.5625,-6.40625 h 2.10938 l 2.42187,3.4375 q 0.75,1.0625 1.07813,1.625 0.4375,-0.71875 1.04687,-1.51563 l 2.6875,-3.54687 h 1.92188 l -4.6875,6.29687 5.0625,7.06251 h -2.1875 l -3.35938,-4.76563 q -0.28125,-0.40625 -0.59375,-0.89062 -0.4375,0.73437 -0.625,1 l -3.35937,4.65625 z m 12.36544,0.23437 3.875,-13.8125 h 1.3125 l -3.85937,13.8125 z m 10.02707,-0.23437 V 122.5167 h -4.40625 v -1.57812 h 10.57813 v 1.57812 h -4.40625 v 11.78126 z m 6.63034,0 5.17188,-6.95313 -4.5625,-6.40625 h 2.10937 l 2.42188,3.4375 q 0.75,1.0625 1.07812,1.625 0.4375,-0.71875 1.04688,-1.51563 l 2.6875,-3.54687 h 1.92187 l -4.6875,6.29687 5.0625,7.06251 h -2.1875 l -3.35937,-4.76563 q -0.28125,-0.40625 -0.59375,-0.89062 -0.4375,0.73437 -0.625,1 l -3.35938,4.65625 z"
       id="path85"
       inkscape:connector-curvature="0"
       style="fill:#000000;fill-rule:nonzero" />
    <path
       d="m 512.88715,107.37795 h 80.18897 v 40.97637 h -80.18897 z"
       id="path87"
       inkscape:connector-curvature="0"
       style="fill:#000000;fill-opacity:0;fill-rule:evenodd" />
    <path
       d="m 523.3559,134.29796 v -13.35938 h 5.92188 q 1.78125,0 2.70312,0.35937 0.9375,0.35938 1.48438,1.28125 0.5625,0.90625 0.5625,2.01563 0,1.40625 -0.92188,2.39062 -0.92187,0.96875 -2.84375,1.23438 0.70313,0.34375 1.07813,0.67188 0.76562,0.70312 1.45312,1.76562 l 2.32813,3.64063 h -2.21875 l -1.76563,-2.78125 q -0.78125,-1.20313 -1.28125,-1.82813 -0.5,-0.64062 -0.90625,-0.89062 -0.39062,-0.26563 -0.79687,-0.35938 -0.29688,-0.0781 -0.98438,-0.0781 h -2.04687 v 5.9375 z m 1.76563,-7.45313 h 3.79687 q 1.21875,0 1.89063,-0.25 0.6875,-0.26563 1.04687,-0.8125 0.35938,-0.54688 0.35938,-1.1875 0,-0.95313 -0.6875,-1.5625 -0.6875,-0.60938 -2.1875,-0.60938 h -4.21875 z m 10.31671,7.45313 5.17187,-6.95313 -4.5625,-6.40625 h 2.10938 l 2.42187,3.4375 q 0.75,1.0625 1.07813,1.625 0.4375,-0.71875 1.04687,-1.51563 l 2.6875,-3.54687 h 1.92188 l -4.6875,6.29687 5.0625,7.06251 h -2.1875 l -3.35938,-4.76563 q -0.28125,-0.40625 -0.59375,-0.89062 -0.4375,0.73437 -0.625,1 l -3.35937,4.65625 z m 12.36541,0.23437 3.875,-13.8125 h 1.3125 l -3.85937,13.8125 z m 10.02704,-0.23437 V 122.5167 h -4.40625 v -1.57812 h 10.57813 v 1.57812 h -4.40625 v 11.78126 z m 6.63037,0 5.17188,-6.95313 -4.5625,-6.40625 h 2.10937 l 2.42188,3.4375 q 0.75,1.0625 1.07812,1.625 0.4375,-0.71875 1.04688,-1.51563 l 2.6875,-3.54687 h 1.92187 l -4.6875,6.29687 5.0625,7.06251 h -2.1875 l -3.35937,-4.76563 q -0.28125,-0.40625 -0.59375,-0.89062 -0.4375,0.73437 -0.625,1 l -3.35938,4.65625 z"
       id="path89"
       inkscape:connector-curvature="0"
       style="fill:#000000;fill-rule:nonzero" />
    <path
       d="m 542.9029,184.1811 h 50.17322 v 40.97638 H 542.9029 Z"
       id="path91"
       inkscape:connector-curvature="0"
       style="fill:#000000;fill-opacity:0;fill-rule:evenodd" />
    <path
       d="m 556.74664,211.1011 v -11.78125 h -4.40625 v -1.57813 h 10.57812 v 1.57813 h -4.40625 v 11.78125 z m 6.63037,0 5.17188,-6.95313 -4.5625,-6.40625 h 2.10937 l 2.42188,3.4375 q 0.75,1.0625 1.07812,1.625 0.4375,-0.71875 1.04688,-1.51562 l 2.6875,-3.54688 h 1.92187 l -4.6875,6.29688 5.0625,7.0625 h -2.1875 l -3.35937,-4.76563 q -0.28125,-0.40625 -0.59375,-0.89062 -0.4375,0.73437 -0.625,1 l -3.35938,4.65625 z"
       id="path93"
       inkscape:connector-curvature="0"
       style="fill:#000000;fill-rule:nonzero" />
    <path
       d="M 552.9816,107.37795 566.52493,42.086614"
       id="path95"
       inkscape:connector-curvature="0"
       style="fill:#000000;fill-opacity:0;fill-rule:evenodd" />
    <path
       d="M 552.9816,107.37795 566.52493,42.086614"
       id="path97"
       inkscape:connector-curvature="0"
       style="fill-rule:evenodd;stroke:#000000;stroke-width:1;stroke-linecap:butt;stroke-linejoin:round" />
    <path
       d="M 441.35696,107.37795 429.45144,47.031495"
       id="path99"
       inkscape:connector-curvature="0"
       style="fill:#000000;fill-opacity:0;fill-rule:evenodd" />
    <path
       d="M 441.35696,107.37795 429.45144,47.031495"
       id="path101"
       inkscape:connector-curvature="0"
       style="fill-rule:evenodd;stroke:#000000;stroke-width:1;stroke-linecap:butt;stroke-linejoin:round" />
    <path
       d="m 410.3176,182.64568 h 50.17322 v 40.97636 H 410.3176 Z"
       id="path103"
       inkscape:connector-curvature="0"
       style="fill:#000000;fill-opacity:0;fill-rule:evenodd" />
    <path
       d="m 420.78635,209.56567 v -13.35938 h 5.92188 q 1.78125,0 2.70312,0.35938 0.9375,0.35937 1.48438,1.28125 0.5625,0.90625 0.5625,2.01562 0,1.40625 -0.92188,2.39063 -0.92187,0.96875 -2.84375,1.23437 0.70313,0.34375 1.07813,0.67188 0.76562,0.70312 1.45312,1.76562 l 2.32813,3.64063 h -2.21875 l -1.76563,-2.78125 q -0.78125,-1.20313 -1.28125,-1.82813 -0.5,-0.64062 -0.90625,-0.89062 -0.39062,-0.26563 -0.79687,-0.35938 -0.29688,-0.0781 -0.98438,-0.0781 h -2.04687 v 5.9375 z m 1.76563,-7.45313 h 3.79687 q 1.21875,0 1.89063,-0.25 0.6875,-0.26562 1.04687,-0.8125 0.35938,-0.54687 0.35938,-1.1875 0,-0.95312 -0.6875,-1.5625 -0.6875,-0.60937 -2.1875,-0.60937 h -4.21875 z m 10.31668,7.45313 5.17187,-6.95313 -4.5625,-6.40625 h 2.10938 l 2.42187,3.4375 q 0.75,1.0625 1.07813,1.625 0.4375,-0.71875 1.04687,-1.51562 l 2.6875,-3.54688 h 1.92188 l -4.6875,6.29688 5.0625,7.0625 h -2.1875 l -3.35938,-4.76563 q -0.28125,-0.40625 -0.59375,-0.89062 -0.4375,0.73437 -0.625,1 l -3.35937,4.65625 z"
       id="path105"
       inkscape:connector-curvature="0"
       style="fill:#000000;fill-rule:nonzero" />
    <path
       d="M 647.3648,107.37795 H 845.03411 V 226.1811 H 647.3648 Z"
       id="path107"
       inkscape:connector-curvature="0"
       style="fill:#cfe2f3;fill-rule:evenodd" />
    <path
       d="M 647.3648,107.37795 H 845.03411 V 226.1811 H 647.3648 Z"
       id="path109"
       inkscape:connector-curvature="0"
       style="fill-rule:evenodd;stroke:#000000;stroke-width:1;stroke-linecap:butt;stroke-linejoin:round" />
    <path
       d="m 675.2703,130.77953 h 141.85828 v 72 H 675.2703 Z"
       id="path111"
       inkscape:connector-curvature="0"
       style="fill:#000000;fill-opacity:0;fill-rule:evenodd" />
    <path
       d="m 688.06934,173.69952 v -13.35938 h 5.92187 q 1.78125,0 2.70313,0.35938 0.9375,0.35937 1.48437,1.28125 0.5625,0.90625 0.5625,2.01562 0,1.40625 -0.92187,2.39063 -0.92188,0.96875 -2.84375,1.23437 0.70312,0.34375 1.07812,0.67188 0.76563,0.70312 1.45313,1.76562 l 2.32812,3.64063 h -2.21875 l -1.76562,-2.78125 q -0.78125,-1.20313 -1.28125,-1.82813 -0.5,-0.64062 -0.90625,-0.89062 -0.39063,-0.26563 -0.79688,-0.35938 -0.29687,-0.0781 -0.98437,-0.0781 h -2.04688 v 5.9375 z m 1.76562,-7.45313 h 3.79688 q 1.21875,0 1.89062,-0.25 0.6875,-0.26562 1.04688,-0.8125 0.35937,-0.54687 0.35937,-1.1875 0,-0.95312 -0.6875,-1.5625 -0.6875,-0.60937 -2.1875,-0.60937 h -4.21875 z m 11.76984,7.45313 v -13.35938 h 9.01563 v 1.57813 h -7.25 v 4.14062 h 6.26562 v 1.57813 h -6.26562 v 6.0625 z m 10.7085,-4.29688 1.65625,-0.14062 q 0.125,1 0.54687,1.64062 0.4375,0.64063 1.34375,1.04688 0.92188,0.39062 2.0625,0.39062 1,0 1.78125,-0.29687 0.78125,-0.29688 1.15625,-0.8125 0.375,-0.53125 0.375,-1.15625 0,-0.625 -0.375,-1.09375 -0.35937,-0.46875 -1.1875,-0.79688 -0.54687,-0.20312 -2.39062,-0.64062 -1.82813,-0.45313 -2.5625,-0.84375 -0.96875,-0.5 -1.4375,-1.23438 -0.46875,-0.75 -0.46875,-1.67187 0,-1 0.57812,-1.875 0.57813,-0.89063 1.67188,-1.34375 1.10937,-0.45313 2.45312,-0.45313 1.48438,0 2.60938,0.48438 1.14062,0.46875 1.75,1.40625 0.60937,0.92187 0.65625,2.09375 l -1.6875,0.125 q -0.14063,-1.26563 -0.9375,-1.90625 -0.78125,-0.65625 -2.3125,-0.65625 -1.60938,0 -2.34375,0.59375 -0.73438,0.59375 -0.73438,1.42187 0,0.71875 0.53125,1.17188 0.5,0.46875 2.65625,0.96875 2.15625,0.48437 2.95313,0.84375 1.17187,0.53125 1.71875,1.35937 0.5625,0.82813 0.5625,1.90625 0,1.0625 -0.60938,2.01563 -0.60937,0.9375 -1.75,1.46875 -1.14062,0.51562 -2.57812,0.51562 -1.8125,0 -3.04688,-0.53125 -1.21875,-0.53125 -1.92187,-1.59375 -0.6875,-1.0625 -0.71875,-2.40625 z m 15.36541,4.29688 -3.53125,-13.35938 h 1.8125 l 2.03125,8.76563 q 0.32813,1.375 0.5625,2.71875 0.5,-2.14063 0.59375,-2.46875 l 2.54688,-9.01563 h 2.125 l 1.92187,6.76563 q 0.71875,2.51562 1.03125,4.71875 0.26563,-1.26563 0.67188,-2.89063 l 2.09375,-8.59375 h 1.78125 l -3.67188,13.35938 h -1.70312 l -2.8125,-10.17188 q -0.35938,-1.28125 -0.42188,-1.5625 -0.20312,0.90625 -0.39062,1.5625 l -2.82813,10.17188 z m 15.5774,0 v -13.35938 h 1.76562 v 13.35938 z m 8.29272,0 v -11.78125 h -4.40625 v -1.57813 h 10.57813 v 1.57813 h -4.40625 v 11.78125 z m 17.52094,-4.6875 1.76562,0.45312 q -0.5625,2.17188 -2,3.32813 -1.4375,1.14062 -3.53125,1.14062 -2.15625,0 -3.51562,-0.875 -1.34375,-0.89062 -2.0625,-2.54687 -0.70313,-1.67188 -0.70313,-3.59375 0,-2.07813 0.79688,-3.625 0.79687,-1.5625 2.26562,-2.35938 1.48438,-0.8125 3.25,-0.8125 2,0 3.35938,1.01563 1.375,1.01562 1.90625,2.875 l -1.73438,0.40625 q -0.46875,-1.45313 -1.35937,-2.10938 -0.875,-0.67187 -2.20313,-0.67187 -1.54687,0 -2.57812,0.73437 -1.03125,0.73438 -1.45313,1.98438 -0.42187,1.23437 -0.42187,2.5625 0,1.70312 0.5,2.96875 0.5,1.26562 1.54687,1.90625 1.04688,0.625 2.26563,0.625 1.48437,0 2.51562,-0.85938 1.03125,-0.85937 1.39063,-2.54687 z m 4.00421,4.6875 v -13.35938 h 1.76562 v 5.48438 h 6.9375 v -5.48438 h 1.76563 v 13.35938 h -1.76563 v -6.29688 h -6.9375 v 6.29688 z m 12.75421,-6.59375 q 0,-2.35938 0.48437,-3.79688 0.48438,-1.45312 1.4375,-2.23437 0.96875,-0.78125 2.42188,-0.78125 1.07812,0 1.89062,0.4375 0.8125,0.42187 1.32813,1.25 0.53125,0.8125 0.82812,1.98437 0.3125,1.15625 0.3125,3.14063 0,2.35937 -0.48437,3.8125 -0.48438,1.4375 -1.45313,2.23437 -0.95312,0.78125 -2.42187,0.78125 -1.92188,0 -3.03125,-1.39062 -1.3125,-1.67188 -1.3125,-5.4375 z m 1.67187,0 q 0,3.29687 0.76563,4.39062 0.78125,1.07813 1.90625,1.07813 1.14062,0 1.90625,-1.09375 0.76562,-1.09375 0.76562,-4.375 0,-3.29688 -0.76562,-4.375 -0.76563,-1.07813 -1.92188,-1.07813 -1.125,0 -1.79687,0.95313 -0.85938,1.21875 -0.85938,4.5 z m 14.87574,6.59375 h -1.64063 v -10.45313 q -0.59375,0.5625 -1.5625,1.14063 -0.95312,0.5625 -1.71875,0.84375 v -1.59375 q 1.375,-0.64063 2.40625,-1.5625 1.03125,-0.92188 1.45313,-1.78125 h 1.0625 z"
       id="path113"
       inkscape:connector-curvature="0"
       style="fill:#000000;fill-rule:nonzero" />
    <path
       d="m 648.7559,107.37795 h 80.18896 v 40.97637 H 648.7559 Z"
       id="path115"
       inkscape:connector-curvature="0"
       style="fill:#000000;fill-opacity:0;fill-rule:evenodd" />
    <path
       d="m 659.2247,134.29796 v -13.35938 h 5.92187 q 1.78125,0 2.70313,0.35937 0.9375,0.35938 1.48437,1.28125 0.5625,0.90625 0.5625,2.01563 0,1.40625 -0.92187,2.39062 -0.92188,0.96875 -2.84375,1.23438 0.70312,0.34375 1.07812,0.67188 0.76563,0.70312 1.45313,1.76562 l 2.32812,3.64063 h -2.21875 l -1.76562,-2.78125 q -0.78125,-1.20313 -1.28125,-1.82813 -0.5,-0.64062 -0.90625,-0.89062 -0.39063,-0.26563 -0.79688,-0.35938 -0.29687,-0.0781 -0.98437,-0.0781 h -2.04688 v 5.9375 z m 1.76562,-7.45313 h 3.79688 q 1.21875,0 1.89062,-0.25 0.6875,-0.26563 1.04688,-0.8125 0.35937,-0.54688 0.35937,-1.1875 0,-0.95313 -0.6875,-1.5625 -0.6875,-0.60938 -2.1875,-0.60938 h -4.21875 z m 10.31672,7.45313 5.17187,-6.95313 -4.5625,-6.40625 h 2.10938 l 2.42187,3.4375 q 0.75,1.0625 1.07813,1.625 0.4375,-0.71875 1.04687,-1.51563 l 2.6875,-3.54687 h 1.92188 l -4.6875,6.29687 5.0625,7.06251 h -2.1875 l -3.35938,-4.76563 q -0.28125,-0.40625 -0.59375,-0.89062 -0.4375,0.73437 -0.625,1 l -3.35937,4.65625 z m 12.36541,0.23437 3.875,-13.8125 h 1.3125 l -3.85937,13.8125 z m 10.02704,-0.23437 V 122.5167 h -4.40625 v -1.57812 h 10.57813 v 1.57812 h -4.40625 v 11.78126 z m 6.63037,0 5.17188,-6.95313 -4.5625,-6.40625 h 2.10937 l 2.42188,3.4375 q 0.75,1.0625 1.07812,1.625 0.4375,-0.71875 1.04688,-1.51563 l 2.6875,-3.54687 h 1.92187 l -4.6875,6.29687 5.0625,7.06251 h -2.1875 l -3.35937,-4.76563 q -0.28125,-0.40625 -0.59375,-0.89062 -0.4375,0.73437 -0.625,1 l -3.35938,4.65625 z"
       id="path117"
       inkscape:connector-curvature="0"
       style="fill:#000000;fill-rule:nonzero" />
    <path
       d="m 760.38055,107.37795 h 80.18903 v 40.97637 h -80.18903 z"
       id="path119"
       inkscape:connector-curvature="0"
       style="fill:#000000;fill-opacity:0;fill-rule:evenodd" />
    <path
       d="m 770.8493,134.29796 v -13.35938 h 5.92187 q 1.78125,0 2.70313,0.35937 0.9375,0.35938 1.48437,1.28125 0.5625,0.90625 0.5625,2.01563 0,1.40625 -0.92187,2.39062 -0.92188,0.96875 -2.84375,1.23438 0.70312,0.34375 1.07812,0.67188 0.76563,0.70312 1.45313,1.76562 l 2.32812,3.64063 h -2.21875 l -1.76562,-2.78125 q -0.78125,-1.20313 -1.28125,-1.82813 -0.5,-0.64062 -0.90625,-0.89062 -0.39063,-0.26563 -0.79688,-0.35938 -0.29687,-0.0781 -0.98437,-0.0781 h -2.04688 v 5.9375 z m 1.76562,-7.45313 h 3.79688 q 1.21875,0 1.89062,-0.25 0.6875,-0.26563 1.04688,-0.8125 0.35937,-0.54688 0.35937,-1.1875 0,-0.95313 -0.6875,-1.5625 -0.6875,-0.60938 -2.1875,-0.60938 h -4.21875 z m 10.31672,7.45313 5.17187,-6.95313 -4.5625,-6.40625 h 2.10938 l 2.42187,3.4375 q 0.75,1.0625 1.07813,1.625 0.4375,-0.71875 1.04687,-1.51563 l 2.6875,-3.54687 h 1.92188 l -4.6875,6.29687 5.0625,7.06251 h -2.1875 l -3.35938,-4.76563 q -0.28125,-0.40625 -0.59375,-0.89062 -0.4375,0.73437 -0.625,1 l -3.35937,4.65625 z m 12.36547,0.23437 3.875,-13.8125 h 1.3125 l -3.85937,13.8125 z m 10.02704,-0.23437 V 122.5167 h -4.40625 v -1.57812 h 10.57813 v 1.57812 h -4.40625 v 11.78126 z m 6.63037,0 5.17188,-6.95313 -4.5625,-6.40625 h 2.10937 l 2.42188,3.4375 q 0.75,1.0625 1.07812,1.625 0.4375,-0.71875 1.04688,-1.51563 l 2.6875,-3.54687 h 1.92187 l -4.6875,6.29687 5.0625,7.06251 h -2.1875 l -3.35937,-4.76563 q -0.28125,-0.40625 -0.59375,-0.89062 -0.4375,0.73437 -0.625,1 l -3.35938,4.65625 z"
       id="path121"
       inkscape:connector-curvature="0"
       style="fill:#000000;fill-rule:nonzero" />
    <path
       d="m 790.3963,184.1811 h 50.17328 v 40.97638 H 790.3963 Z"
       id="path123"
       inkscape:connector-curvature="0"
       style="fill:#000000;fill-opacity:0;fill-rule:evenodd" />
    <path
       d="m 804.24005,211.1011 v -11.78125 h -4.40625 v -1.57813 h 10.57812 v 1.57813 h -4.40625 v 11.78125 z m 6.63037,0 5.17188,-6.95313 -4.5625,-6.40625 h 2.10937 l 2.42188,3.4375 q 0.75,1.0625 1.07812,1.625 0.4375,-0.71875 1.04688,-1.51562 l 2.6875,-3.54688 h 1.92187 l -4.6875,6.29688 5.0625,7.0625 h -2.1875 l -3.35937,-4.76563 q -0.28125,-0.40625 -0.59375,-0.89062 -0.4375,0.73437 -0.625,1 l -3.35938,4.65625 z"
       id="path125"
       inkscape:connector-curvature="0"
       style="fill:#000000;fill-rule:nonzero" />
    <path
       d="M 800.47504,107.37795 814.01837,42.086614"
       id="path127"
       inkscape:connector-curvature="0"
       style="fill:#000000;fill-opacity:0;fill-rule:evenodd" />
    <path
       d="M 800.47504,107.37795 814.01837,42.086614"
       id="path129"
       inkscape:connector-curvature="0"
       style="fill-rule:evenodd;stroke:#000000;stroke-width:1;stroke-linecap:butt;stroke-linejoin:round" />
    <path
       d="M 688.8504,107.37795 676.94488,47.031495"
       id="path131"
       inkscape:connector-curvature="0"
       style="fill:#000000;fill-opacity:0;fill-rule:evenodd" />
    <path
       d="M 688.8504,107.37795 676.94488,47.031495"
       id="path133"
       inkscape:connector-curvature="0"
       style="fill-rule:evenodd;stroke:#000000;stroke-width:1;stroke-linecap:butt;stroke-linejoin:round" />
    <path
       d="m 657.81104,182.64568 h 50.17322 v 40.97636 h -50.17322 z"
       id="path135"
       inkscape:connector-curvature="0"
       style="fill:#000000;fill-opacity:0;fill-rule:evenodd" />
    <path
       d="m 668.2798,209.56567 v -13.35938 h 5.92188 q 1.78125,0 2.70312,0.35938 0.9375,0.35937 1.48438,1.28125 0.5625,0.90625 0.5625,2.01562 0,1.40625 -0.92188,2.39063 -0.92187,0.96875 -2.84375,1.23437 0.70313,0.34375 1.07813,0.67188 0.76562,0.70312 1.45312,1.76562 l 2.32813,3.64063 h -2.21875 l -1.76563,-2.78125 q -0.78125,-1.20313 -1.28125,-1.82813 -0.5,-0.64062 -0.90625,-0.89062 -0.39062,-0.26563 -0.79687,-0.35938 -0.29688,-0.0781 -0.98438,-0.0781 h -2.04687 v 5.9375 z m 1.76563,-7.45313 h 3.79687 q 1.21875,0 1.89063,-0.25 0.6875,-0.26562 1.04687,-0.8125 0.35938,-0.54687 0.35938,-1.1875 0,-0.95312 -0.6875,-1.5625 -0.6875,-0.60937 -2.1875,-0.60937 h -4.21875 z m 10.31671,7.45313 5.17187,-6.95313 -4.5625,-6.40625 h 2.10938 l 2.42187,3.4375 q 0.75,1.0625 1.07813,1.625 0.4375,-0.71875 1.04687,-1.51562 l 2.6875,-3.54688 h 1.92188 l -4.6875,6.29688 5.0625,7.0625 h -2.1875 l -3.35938,-4.76563 q -0.28125,-0.40625 -0.59375,-0.89062 -0.4375,0.73437 -0.625,1 l -3.35937,4.65625 z"
       id="path137"
       inkscape:connector-curvature="0"
       style="fill:#000000;fill-rule:nonzero" />
    <path
       d="m 753.87665,389.72964 h 93.19684 v 60.34647 h -93.19684 z"
       id="path139"
       inkscape:connector-curvature="0"
       style="fill:#000000;fill-opacity:0;fill-rule:evenodd" />
    <path
       d="m 774.4741,416.64966 v -13.35938 h 5.92188 q 1.78125,0 2.70312,0.35938 0.9375,0.35937 1.48438,1.28125 0.5625,0.90625 0.5625,2.01562 0,1.40625 -0.92188,2.39063 -0.92187,0.96875 -2.84375,1.23437 0.70313,0.34375 1.07813,0.67188 0.76562,0.70312 1.45312,1.76562 l 2.32813,3.64063 h -2.21875 l -1.76563,-2.78125 q -0.78125,-1.20313 -1.28125,-1.82813 -0.5,-0.64062 -0.90625,-0.89062 -0.39062,-0.26563 -0.79687,-0.35938 -0.29688,-0.0781 -0.98438,-0.0781 h -2.04687 v 5.9375 z m 1.76563,-7.45313 h 3.79687 q 1.21875,0 1.89063,-0.25 0.6875,-0.26562 1.04687,-0.8125 0.35938,-0.54687 0.35938,-1.1875 0,-0.95312 -0.6875,-1.5625 -0.6875,-0.60937 -2.1875,-0.60937 h -4.21875 z m 10.31671,7.45313 5.17187,-6.95313 -4.5625,-6.40625 h 2.10938 l 2.42187,3.4375 q 0.75,1.0625 1.07813,1.625 0.4375,-0.71875 1.04687,-1.51562 l 2.6875,-3.54688 h 1.92188 l -4.6875,6.29688 5.0625,7.0625 h -2.1875 l -3.35938,-4.76563 q -0.28125,-0.40625 -0.59375,-0.89062 -0.4375,0.73437 -0.625,1 l -3.35937,4.65625 z m 12.36541,0.23437 3.875,-13.8125 h 1.3125 l -3.85937,13.8125 z m 10.0271,-0.23437 v -11.78125 h -4.40625 v -1.57813 h 10.57813 v 1.57813 h -4.40625 v 11.78125 z m 6.63031,0 5.17188,-6.95313 -4.5625,-6.40625 h 2.10937 l 2.42188,3.4375 q 0.75,1.0625 1.07812,1.625 0.4375,-0.71875 1.04688,-1.51562 l 2.6875,-3.54688 h 1.92187 l -4.6875,6.29688 5.0625,7.0625 h -2.1875 l -3.35937,-4.76563 q -0.28125,-0.40625 -0.59375,-0.89062 -0.4375,0.73437 -0.625,1 l -3.35938,4.65625 z"
       id="path141"
       inkscape:connector-curvature="0"
       style="fill:#000000;fill-rule:nonzero" />
    <path
       d="m 780.0239,435.10278 1.60938,0.21875 q -0.26563,1.65625 -1.35938,2.60937 -1.07812,0.9375 -2.67187,0.9375 -1.98438,0 -3.1875,-1.29687 -1.20313,-1.29688 -1.20313,-3.71875 0,-1.57813 0.51563,-2.75 0.51562,-1.17188 1.57812,-1.75 1.0625,-0.59375 2.3125,-0.59375 1.57813,0 2.57813,0.79687 1,0.79688 1.28125,2.26563 l -1.59375,0.23437 q -0.23438,-0.96875 -0.8125,-1.45312 -0.57813,-0.5 -1.39063,-0.5 -1.23437,0 -2.01562,0.89062 -0.78125,0.89063 -0.78125,2.8125 0,1.95313 0.75,2.84375 0.75,0.875 1.95312,0.875 0.96875,0 1.60938,-0.59375 0.65625,-0.59375 0.82812,-1.82812 z m 2.40625,-1.29688 q 0,-2.6875 1.48438,-3.96875 1.25,-1.07812 3.04687,-1.07812 2,0 3.26563,1.3125 1.26562,1.29687 1.26562,3.60937 0,1.85938 -0.5625,2.9375 -0.5625,1.0625 -1.64062,1.65625 -1.0625,0.59375 -2.32813,0.59375 -2.03125,0 -3.28125,-1.29687 -1.25,-1.3125 -1.25,-3.76563 z m 1.6875,0 q 0,1.85938 0.79688,2.79688 0.8125,0.92187 2.04687,0.92187 1.21875,0 2.03125,-0.92187 0.8125,-0.9375 0.8125,-2.84375 0,-1.79688 -0.8125,-2.71875 -0.8125,-0.92188 -2.03125,-0.92188 -1.23437,0 -2.04687,0.92188 -0.79688,0.90625 -0.79688,2.76562 z m 9.29755,4.84375 v -9.67187 h 1.46875 v 1.375 q 1.0625,-1.59375 3.07812,-1.59375 0.875,0 1.60938,0.3125 0.73437,0.3125 1.09375,0.82812 0.375,0.5 0.51562,1.20313 0.0937,0.45312 0.0937,1.59375 v 5.95312 h -1.64062 v -5.89062 q 0,-1 -0.20313,-1.48438 -0.1875,-0.5 -0.67187,-0.79687 -0.48438,-0.29688 -1.14063,-0.29688 -1.04687,0 -1.8125,0.67188 -0.75,0.65625 -0.75,2.51562 v 5.28125 z m 13.95385,-1.46875 0.23438,1.45313 q -0.6875,0.14062 -1.23438,0.14062 -0.89062,0 -1.39062,-0.28125 -0.48438,-0.28125 -0.6875,-0.73437 -0.20313,-0.46875 -0.20313,-1.9375 v -5.57813 h -1.20312 v -1.26562 h 1.20312 v -2.39063 l 1.625,-0.98437 v 3.375 h 1.65625 v 1.26562 h -1.65625 v 5.67188 q 0,0.6875 0.0781,0.89062 0.0937,0.20313 0.28125,0.32813 0.20312,0.10937 0.57812,0.10937 0.26563,0 0.71875,-0.0625 z m 1.58954,1.46875 v -9.67187 h 1.46875 v 1.46875 q 0.5625,-1.03125 1.03125,-1.35938 0.48438,-0.32812 1.0625,-0.32812 0.82813,0 1.6875,0.53125 l -0.5625,1.51562 q -0.60937,-0.35937 -1.20312,-0.35937 -0.54688,0 -0.96875,0.32812 -0.42188,0.32813 -0.60938,0.89063 -0.28125,0.875 -0.28125,1.92187 v 5.0625 z m 5.61896,-4.84375 q 0,-2.6875 1.48437,-3.96875 1.25,-1.07812 3.04688,-1.07812 2,0 3.26562,1.3125 1.26563,1.29687 1.26563,3.60937 0,1.85938 -0.5625,2.9375 -0.5625,1.0625 -1.64063,1.65625 -1.0625,0.59375 -2.32812,0.59375 -2.03125,0 -3.28125,-1.29687 -1.25,-1.3125 -1.25,-3.76563 z m 1.6875,0 q 0,1.85938 0.79687,2.79688 0.8125,0.92187 2.04688,0.92187 1.21875,0 2.03125,-0.92187 0.8125,-0.9375 0.8125,-2.84375 0,-1.79688 -0.8125,-2.71875 -0.8125,-0.92188 -2.03125,-0.92188 -1.23438,0 -2.04688,0.92188 -0.79687,0.90625 -0.79687,2.76562 z m 9.25073,4.84375 v -13.35937 h 1.64063 v 13.35937 z"
       id="path143"
       inkscape:connector-curvature="0"
       style="fill:#000000;fill-rule:nonzero" />
    <path
       d="m 403.2533,271.27036 h 93.19684 v 82.99213 H 403.2533 Z"
       id="path145"
       inkscape:connector-curvature="0"
       style="fill:#000000;fill-opacity:0;fill-rule:evenodd" />
    <path
       d="m 415.06772,298.19034 5.125,-13.35938 h 1.90625 l 5.46875,13.35938 h -2.01563 l -1.54687,-4.04688 h -5.59375 l -1.46875,4.04688 z m 3.85937,-5.48438 h 4.53125 l -1.40625,-3.70312 q -0.625,-1.6875 -0.9375,-2.76563 -0.26562,1.28125 -0.71875,2.54688 z m 9.84983,5.48438 v -9.67188 h 1.46875 v 1.375 q 1.0625,-1.59375 3.07812,-1.59375 0.875,0 1.60938,0.3125 0.73437,0.3125 1.09375,0.82813 0.375,0.5 0.51562,1.20312 0.0937,0.45313 0.0937,1.59375 v 5.95313 h -1.64062 v -5.89063 q 0,-1 -0.20313,-1.48437 -0.1875,-0.5 -0.67187,-0.79688 -0.48438,-0.29687 -1.14063,-0.29687 -1.04687,0 -1.8125,0.67187 -0.75,0.65625 -0.75,2.51563 v 5.28125 z m 13.95385,-1.46875 0.23438,1.45312 q -0.6875,0.14063 -1.23438,0.14063 -0.89062,0 -1.39062,-0.28125 -0.48438,-0.28125 -0.6875,-0.73438 -0.20313,-0.46875 -0.20313,-1.9375 v -5.57812 h -1.20312 v -1.26563 h 1.20312 v -2.39062 l 1.625,-0.98438 v 3.375 h 1.65625 v 1.26563 h -1.65625 v 5.67187 q 0,0.6875 0.0781,0.89063 0.0937,0.20312 0.28125,0.32812 0.20312,0.10938 0.57812,0.10938 0.26563,0 0.71875,-0.0625 z m 8.23017,-1.64063 1.6875,0.20313 q -0.40625,1.48437 -1.48438,2.3125 -1.07812,0.8125 -2.76562,0.8125 -2.125,0 -3.375,-1.29688 -1.23438,-1.3125 -1.23438,-3.67187 0,-2.45313 1.25,-3.79688 1.26563,-1.34375 3.26563,-1.34375 1.9375,0 3.15625,1.32813 1.23437,1.3125 1.23437,3.70312 0,0.15625 0,0.4375 h -7.21875 q 0.0937,1.59375 0.90625,2.45313 0.8125,0.84375 2.01563,0.84375 0.90625,0 1.54687,-0.46875 0.64063,-0.48438 1.01563,-1.51563 z m -5.39063,-2.65625 h 5.40625 q -0.10937,-1.21875 -0.625,-1.82812 -0.78125,-0.95313 -2.03125,-0.95313 -1.125,0 -1.90625,0.76563 -0.76562,0.75 -0.84375,2.01562 z m 9.14136,5.76563 v -9.67188 h 1.46875 v 1.375 q 1.0625,-1.59375 3.07813,-1.59375 0.875,0 1.60937,0.3125 0.73438,0.3125 1.09375,0.82813 0.375,0.5 0.51563,1.20312 0.0937,0.45313 0.0937,1.59375 v 5.95313 h -1.64063 v -5.89063 q 0,-1 -0.20312,-1.48437 -0.1875,-0.5 -0.67188,-0.79688 -0.48437,-0.29687 -1.14062,-0.29687 -1.04688,0 -1.8125,0.67187 -0.75,0.65625 -0.75,2.51563 v 5.28125 z m 10.3757,0 v -9.67188 h 1.46875 v 1.375 q 1.0625,-1.59375 3.07813,-1.59375 0.875,0 1.60937,0.3125 0.73438,0.3125 1.09375,0.82813 0.375,0.5 0.51563,1.20312 0.0937,0.45313 0.0937,1.59375 v 5.95313 h -1.64063 v -5.89063 q 0,-1 -0.20312,-1.48437 -0.1875,-0.5 -0.67188,-0.79688 -0.48437,-0.29687 -1.14062,-0.29687 -1.04688,0 -1.8125,0.67187 -0.75,0.65625 -0.75,2.51563 v 5.28125 z m 16.68824,-1.1875 q -0.92188,0.76562 -1.76563,1.09375 -0.82812,0.3125 -1.79687,0.3125 -1.59375,0 -2.45313,-0.78125 -0.85937,-0.78125 -0.85937,-1.98438 0,-0.71875 0.32812,-1.29687 0.32813,-0.59375 0.84375,-0.9375 0.53125,-0.35938 1.1875,-0.54688 0.46875,-0.125 1.45313,-0.25 1.98437,-0.23437 2.92187,-0.5625 0.0156,-0.34375 0.0156,-0.42187 0,-1 -0.46875,-1.42188 -0.625,-0.54687 -1.875,-0.54687 -1.15625,0 -1.70313,0.40625 -0.54687,0.40625 -0.8125,1.42187 l -1.60937,-0.21875 q 0.21875,-1.01562 0.71875,-1.64062 0.5,-0.64063 1.45312,-0.98438 0.95313,-0.34375 2.1875,-0.34375 1.25,0 2.01563,0.29688 0.78125,0.28125 1.14062,0.73437 0.375,0.4375 0.51563,1.10938 0.0781,0.42187 0.0781,1.51562 v 2.1875 q 0,2.28125 0.10938,2.89063 0.10937,0.59375 0.40625,1.15625 h -1.70313 q -0.26562,-0.51563 -0.32812,-1.1875 z m -0.14063,-3.67188 q -0.89062,0.375 -2.67187,0.625 -1.01563,0.14063 -1.4375,0.32813 -0.42188,0.1875 -0.65625,0.53125 -0.21875,0.34375 -0.21875,0.78125 0,0.65625 0.5,1.09375 0.5,0.4375 1.45312,0.4375 0.9375,0 1.67188,-0.40625 0.75,-0.42188 1.09375,-1.14063 0.26562,-0.5625 0.26562,-1.64062 z"
       id="path147"
       inkscape:connector-curvature="0"
       style="fill:#000000;fill-rule:nonzero" />
    <path
       d="m 426.06192,317.2997 1.625,-0.25 q 0.125,0.96875 0.75,1.5 0.625,0.51562 1.75,0.51562 1.125,0 1.67187,-0.45312 0.54688,-0.46875 0.54688,-1.09375 0,-0.54688 -0.48438,-0.875 -0.32812,-0.21875 -1.67187,-0.54688 -1.8125,-0.46875 -2.51563,-0.79687 -0.6875,-0.32813 -1.04687,-0.90625 -0.35938,-0.59375 -0.35938,-1.3125 0,-0.64063 0.29688,-1.1875 0.29687,-0.5625 0.8125,-0.92188 0.375,-0.28125 1.03125,-0.46875 0.67187,-0.20312 1.42187,-0.20312 1.14063,0 2,0.32812 0.85938,0.32813 1.26563,0.89063 0.42187,0.5625 0.57812,1.5 l -1.60937,0.21875 q -0.10938,-0.75 -0.64063,-1.17188 -0.51562,-0.42187 -1.46875,-0.42187 -1.14062,0 -1.625,0.375 -0.46875,0.375 -0.46875,0.875 0,0.3125 0.1875,0.57812 0.20313,0.26563 0.64063,0.4375 0.23437,0.0937 1.4375,0.42188 1.75,0.45312 2.4375,0.75 0.6875,0.29687 1.07812,0.85937 0.39063,0.5625 0.39063,1.40625 0,0.82813 -0.48438,1.54688 -0.46875,0.71875 -1.375,1.125 -0.90625,0.39062 -2.04687,0.39062 -1.875,0 -2.875,-0.78125 -0.98438,-0.78125 -1.25,-2.32812 z m 16.60937,-0.21875 1.6875,0.20312 q -0.40625,1.48438 -1.48437,2.3125 -1.07813,0.8125 -2.76563,0.8125 -2.125,0 -3.375,-1.29687 -1.23437,-1.3125 -1.23437,-3.67188 0,-2.45312 1.25,-3.79687 1.26562,-1.34375 3.26562,-1.34375 1.9375,0 3.15625,1.32812 1.23438,1.3125 1.23438,3.70313 0,0.15625 0,0.4375 h -7.21875 q 0.0937,1.59375 0.90625,2.45312 0.8125,0.84375 2.01562,0.84375 0.90625,0 1.54688,-0.46875 0.64062,-0.48437 1.01562,-1.51562 z m -5.39062,-2.65625 h 5.40625 q -0.10938,-1.21875 -0.625,-1.82813 -0.78125,-0.95312 -2.03125,-0.95312 -1.125,0 -1.90625,0.76562 -0.76563,0.75 -0.84375,2.01563 z m 9.09448,5.76562 v -13.35937 h 1.64063 v 13.35937 z m 10.81668,-3.10937 1.6875,0.20312 q -0.40625,1.48438 -1.48437,2.3125 -1.07813,0.8125 -2.76563,0.8125 -2.125,0 -3.375,-1.29687 -1.23437,-1.3125 -1.23437,-3.67188 0,-2.45312 1.25,-3.79687 1.26562,-1.34375 3.26562,-1.34375 1.9375,0 3.15625,1.32812 1.23438,1.3125 1.23438,3.70313 0,0.15625 0,0.4375 h -7.21875 q 0.0937,1.59375 0.90625,2.45312 0.8125,0.84375 2.01562,0.84375 0.90625,0 1.54688,-0.46875 0.64062,-0.48437 1.01562,-1.51562 z m -5.39062,-2.65625 h 5.40625 q -0.10938,-1.21875 -0.625,-1.82813 -0.78125,-0.95312 -2.03125,-0.95312 -1.125,0 -1.90625,0.76562 -0.76563,0.75 -0.84375,2.01563 z m 15.45385,2.21875 1.60938,0.21875 q -0.26563,1.65625 -1.35938,2.60937 -1.07812,0.9375 -2.67187,0.9375 -1.98438,0 -3.1875,-1.29687 -1.20313,-1.29688 -1.20313,-3.71875 0,-1.57813 0.51563,-2.75 0.51562,-1.17188 1.57812,-1.75 1.0625,-0.59375 2.3125,-0.59375 1.57813,0 2.57813,0.79687 1,0.79688 1.28125,2.26563 l -1.59375,0.23437 q -0.23438,-0.96875 -0.8125,-1.45312 -0.57813,-0.5 -1.39063,-0.5 -1.23437,0 -2.01562,0.89062 -0.78125,0.89063 -0.78125,2.8125 0,1.95313 0.75,2.84375 0.75,0.875 1.95312,0.875 0.96875,0 1.60938,-0.59375 0.65625,-0.59375 0.82812,-1.82812 z m 6.59375,2.07812 0.23438,1.45313 q -0.6875,0.14062 -1.23438,0.14062 -0.89062,0 -1.39062,-0.28125 -0.48438,-0.28125 -0.6875,-0.73437 -0.20313,-0.46875 -0.20313,-1.9375 v -5.57813 h -1.20312 v -1.26562 h 1.20312 v -2.39063 l 1.625,-0.98437 v 3.375 h 1.65625 v 1.26562 h -1.65625 v 5.67188 q 0,0.6875 0.0781,0.89062 0.0937,0.20313 0.28125,0.32813 0.20312,0.10937 0.57812,0.10937 0.26563,0 0.71875,-0.0625 z"
       id="path149"
       inkscape:connector-curvature="0"
       style="fill:#000000;fill-rule:nonzero" />
    <path
       d="m 536.92126,589.2756 h 197.66931 v 83.65356 H 536.92126 Z"
       id="path151"
       inkscape:connector-curvature="0"
       style="fill:#cfe2f3;fill-rule:evenodd" />
    <path
       d="m 536.92126,589.2756 h 197.66931 v 83.65356 H 536.92126 Z"
       id="path153"
       inkscape:connector-curvature="0"
       style="fill-rule:evenodd;stroke:#000000;stroke-width:1;stroke-linecap:butt;stroke-linejoin:round" />
    <path
       d="m 587.8814,624.66296 h 1.76562 v 7.71875 q 0,2.01562 -0.45312,3.20312 -0.45313,1.1875 -1.64063,1.9375 -1.1875,0.73438 -3.125,0.73438 -1.875,0 -3.07812,-0.64063 -1.1875,-0.65625 -1.70313,-1.875 -0.5,-1.23437 -0.5,-3.35937 v -7.71875 h 1.76563 v 7.71875 q 0,1.73437 0.3125,2.5625 0.32812,0.8125 1.10937,1.26562 0.79688,0.45313 1.9375,0.45313 1.95313,0 2.78125,-0.89063 0.82813,-0.89062 0.82813,-3.39062 z m 4.11359,9.0625 1.65625,-0.14063 q 0.125,1 0.54687,1.64063 0.4375,0.64062 1.34375,1.04687 0.92188,0.39063 2.0625,0.39063 1,0 1.78125,-0.29688 0.78125,-0.29687 1.15625,-0.8125 0.375,-0.53125 0.375,-1.15625 0,-0.625 -0.375,-1.09375 -0.35937,-0.46875 -1.1875,-0.79687 -0.54687,-0.20313 -2.39062,-0.64063 -1.82813,-0.45312 -2.5625,-0.84375 -0.96875,-0.5 -1.4375,-1.23437 -0.46875,-0.75 -0.46875,-1.67188 0,-1 0.57812,-1.875 0.57813,-0.89062 1.67188,-1.34375 1.10937,-0.45312 2.45312,-0.45312 1.48438,0 2.60938,0.48437 1.14062,0.46875 1.75,1.40625 0.60937,0.92188 0.65625,2.09375 l -1.6875,0.125 q -0.14063,-1.26562 -0.9375,-1.90625 -0.78125,-0.65625 -2.3125,-0.65625 -1.60938,0 -2.34375,0.59375 -0.73438,0.59375 -0.73438,1.42188 0,0.71875 0.53125,1.17187 0.5,0.46875 2.65625,0.96875 2.15625,0.48438 2.95313,0.84375 1.17187,0.53125 1.71875,1.35938 0.5625,0.82812 0.5625,1.90625 0,1.0625 -0.60938,2.01562 -0.60937,0.9375 -1.75,1.46875 -1.14062,0.51563 -2.57812,0.51563 -1.8125,0 -3.04688,-0.53125 -1.21875,-0.53125 -1.92187,-1.59375 -0.6875,-1.0625 -0.71875,-2.40625 z m 12.95922,4.29687 v -13.35937 h 5.01563 q 1.53125,0 2.45312,0.40625 0.92188,0.40625 1.4375,1.25 0.53125,0.84375 0.53125,1.76562 0,0.85938 -0.46875,1.625 -0.45312,0.75 -1.39062,1.20313 1.20312,0.35937 1.85937,1.21875 0.65625,0.85937 0.65625,2.01562 0,0.9375 -0.40625,1.75 -0.39062,0.79688 -0.98437,1.23438 -0.57813,0.4375 -1.45313,0.67187 -0.875,0.21875 -2.15625,0.21875 z m 1.78125,-7.75 h 2.875 q 1.1875,0 1.6875,-0.14062 0.67188,-0.20313 1.01563,-0.67188 0.34375,-0.46875 0.34375,-1.17187 0,-0.65625 -0.32813,-1.15625 -0.3125,-0.51563 -0.90625,-0.70313 -0.59375,-0.1875 -2.03125,-0.1875 h -2.65625 z m 0,6.17188 h 3.3125 q 0.85938,0 1.20313,-0.0625 0.60937,-0.10938 1.01562,-0.35938 0.42188,-0.26562 0.6875,-0.75 0.26563,-0.48437 0.26563,-1.125 0,-0.75 -0.39063,-1.29687 -0.375,-0.54688 -1.0625,-0.76563 -0.67187,-0.23437 -1.95312,-0.23437 h -3.07813 z m 18.69355,0 v 1.57812 h -8.82813 q -0.0156,-0.59375 0.1875,-1.14062 0.34375,-0.90625 1.07813,-1.78125 0.75,-0.875 2.15625,-2.01563 2.17187,-1.78125 2.9375,-2.82812 0.76562,-1.04688 0.76562,-1.96875 0,-0.98438 -0.70312,-1.64063 -0.6875,-0.67187 -1.8125,-0.67187 -1.1875,0 -1.90625,0.71875 -0.70313,0.70312 -0.70313,1.95312 l -1.6875,-0.17187 q 0.17188,-1.89063 1.29688,-2.875 1.14062,-0.98438 3.03125,-0.98438 1.92187,0 3.04687,1.0625 1.125,1.0625 1.125,2.64063 0,0.79687 -0.32812,1.57812 -0.32813,0.78125 -1.09375,1.64063 -0.75,0.84375 -2.53125,2.34375 -1.46875,1.23437 -1.89063,1.6875 -0.42187,0.4375 -0.6875,0.875 z m 1.76635,-1.95313 1.64063,-0.21875 q 0.28125,1.40625 0.95312,2.01563 0.6875,0.60937 1.65625,0.60937 1.15625,0 1.95313,-0.79687 0.79687,-0.79688 0.79687,-1.98438 0,-1.125 -0.73437,-1.85937 -0.73438,-0.73438 -1.875,-0.73438 -0.46875,0 -1.15625,0.17188 l 0.1875,-1.4375 q 0.15625,0.0156 0.26562,0.0156 1.04688,0 1.875,-0.54687 0.84375,-0.54688 0.84375,-1.67188 0,-0.90625 -0.60937,-1.5 -0.60938,-0.59375 -1.57813,-0.59375 -0.95312,0 -1.59375,0.60938 -0.64062,0.59375 -0.8125,1.79687 l -1.64062,-0.29687 q 0.29687,-1.64063 1.35937,-2.54688 1.0625,-0.90625 2.65625,-0.90625 1.09375,0 2,0.46875 0.92188,0.46875 1.40625,1.28125 0.5,0.8125 0.5,1.71875 0,0.85938 -0.46875,1.57813 -0.46875,0.70312 -1.375,1.125 1.1875,0.28125 1.84375,1.14062 0.65625,0.85938 0.65625,2.15625 0,1.73438 -1.28125,2.95313 -1.26562,1.21875 -3.21875,1.21875 -1.76562,0 -2.92187,-1.04688 -1.15625,-1.04687 -1.32813,-2.71875 z m 18.98511,1.95313 v 1.57812 h -8.82812 q -0.0156,-0.59375 0.1875,-1.14062 0.34375,-0.90625 1.07812,-1.78125 0.75,-0.875 2.15625,-2.01563 2.17188,-1.78125 2.9375,-2.82812 0.76563,-1.04688 0.76563,-1.96875 0,-0.98438 -0.70313,-1.64063 -0.6875,-0.67187 -1.8125,-0.67187 -1.1875,0 -1.90625,0.71875 -0.70312,0.70312 -0.70312,1.95312 l -1.6875,-0.17187 q 0.17187,-1.89063 1.29687,-2.875 1.14063,-0.98438 3.03125,-0.98438 1.92188,0 3.04688,1.0625 1.125,1.0625 1.125,2.64063 0,0.79687 -0.32813,1.57812 -0.32812,0.78125 -1.09375,1.64063 -0.75,0.84375 -2.53125,2.34375 -1.46875,1.23437 -1.89062,1.6875 -0.42188,0.4375 -0.6875,0.875 z m 2.4538,1.57812 v -13.35937 h 5.92187 q 1.78125,0 2.70313,0.35937 0.9375,0.35938 1.48437,1.28125 0.5625,0.90625 0.5625,2.01563 0,1.40625 -0.92187,2.39062 -0.92188,0.96875 -2.84375,1.23438 0.70312,0.34375 1.07812,0.67187 0.76563,0.70313 1.45313,1.76563 l 2.32812,3.64062 h -2.21875 l -1.76562,-2.78125 q -0.78125,-1.20312 -1.28125,-1.82812 -0.5,-0.64063 -0.90625,-0.89063 -0.39063,-0.26562 -0.79688,-0.35937 -0.29687,-0.0781 -0.98437,-0.0781 h -2.04688 v 5.9375 z m 1.76562,-7.45312 h 3.79688 q 1.21875,0 1.89062,-0.25 0.6875,-0.26563 1.04688,-0.8125 0.35937,-0.54688 0.35937,-1.1875 0,-0.95313 -0.6875,-1.5625 -0.6875,-0.60938 -2.1875,-0.60938 h -4.21875 z m 11.01984,0.85937 q 0,-2.35937 0.48437,-3.79687 0.48438,-1.45313 1.4375,-2.23438 0.96875,-0.78125 2.42188,-0.78125 1.07812,0 1.89062,0.4375 0.8125,0.42188 1.32813,1.25 0.53125,0.8125 0.82812,1.98438 0.3125,1.15625 0.3125,3.14062 0,2.35938 -0.48437,3.8125 -0.48438,1.4375 -1.45313,2.23438 -0.95312,0.78125 -2.42187,0.78125 -1.92188,0 -3.03125,-1.39063 -1.3125,-1.67187 -1.3125,-5.4375 z m 1.67187,0 q 0,3.29688 0.76563,4.39063 0.78125,1.07812 1.90625,1.07812 1.14062,0 1.90625,-1.09375 0.76562,-1.09375 0.76562,-4.375 0,-3.29687 -0.76562,-4.375 -0.76563,-1.07812 -1.92188,-1.07812 -1.125,0 -1.79687,0.95312 -0.85938,1.21875 -0.85938,4.5 z m 14.87574,6.59375 h -1.64063 v -10.45312 q -0.59375,0.5625 -1.5625,1.14062 -0.95312,0.5625 -1.71875,0.84375 v -1.59375 q 1.375,-0.64062 2.40625,-1.5625 1.03125,-0.92187 1.45313,-1.78125 h 1.0625 z m 4.78198,0 v -13.35937 h 5.01562 q 1.53125,0 2.45313,0.40625 0.92187,0.40625 1.4375,1.25 0.53125,0.84375 0.53125,1.76562 0,0.85938 -0.46875,1.625 -0.45313,0.75 -1.39063,1.20313 1.20313,0.35937 1.85938,1.21875 0.65625,0.85937 0.65625,2.01562 0,0.9375 -0.40625,1.75 -0.39063,0.79688 -0.98438,1.23438 -0.57812,0.4375 -1.45312,0.67187 -0.875,0.21875 -2.15625,0.21875 z m 1.78125,-7.75 h 2.875 q 1.1875,0 1.6875,-0.14062 0.67187,-0.20313 1.01562,-0.67188 0.34375,-0.46875 0.34375,-1.17187 0,-0.65625 -0.32812,-1.15625 -0.3125,-0.51563 -0.90625,-0.70313 -0.59375,-0.1875 -2.03125,-0.1875 h -2.65625 z m 0,6.17188 h 3.3125 q 0.85937,0 1.20312,-0.0625 0.60938,-0.10938 1.01563,-0.35938 0.42187,-0.26562 0.6875,-0.75 0.26562,-0.48437 0.26562,-1.125 0,-0.75 -0.39062,-1.29687 -0.375,-0.54688 -1.0625,-0.76563 -0.67188,-0.23437 -1.95313,-0.23437 h -3.07812 z"
       id="path155"
       inkscape:connector-curvature="0"
       style="fill:#000000;fill-rule:nonzero" />
    <path
       d="M 635.7559,589.2756 V 564.92916"
       id="path157"
       inkscape:connector-curvature="0"
       style="fill:#000000;fill-opacity:0;fill-rule:evenodd" />
    <path
       d="M 635.7559,585.8485 V 568.35619"
       id="path159"
       inkscape:connector-curvature="0"
       style="fill-rule:evenodd;stroke:#000000;stroke-width:1;stroke-linecap:butt;stroke-linejoin:round" />
    <path
       d="m 635.7559,585.8485 -1.12457,-1.12457 1.12457,3.08972 1.12457,-3.08972 z"
       id="path161"
       inkscape:connector-curvature="0"
       style="fill:#000000;fill-rule:evenodd;stroke:#000000;stroke-width:1;stroke-linecap:butt" />
    <path
       d="m 635.7559,568.3562 1.12457,1.12457 -1.12457,-3.08972 -1.12457,3.08972 z"
       id="path163"
       inkscape:connector-curvature="0"
       style="fill:#000000;fill-rule:evenodd;stroke:#000000;stroke-width:1;stroke-linecap:butt" />
    <path
       d="m 536.92126,510.76874 c -21.07086,0 -42.1496,-39.77167 -42.14172,-79.54334 0.008,-39.77163 21.10235,-79.5433 42.20471,-79.5433"
       id="path165"
       inkscape:connector-curvature="0"
       style="fill:#000000;fill-opacity:0;fill-rule:evenodd" />
    <path
       d="m 536.92126,510.76874 c -21.07086,0 -42.1496,-39.77164 -42.14172,-79.5433 0.004,-19.88584 5.27951,-39.77164 13.19192,-54.68604 3.95618,-7.45718 8.57163,-13.67148 13.51688,-18.02151 2.47259,-2.17505 5.02771,-3.88395 7.62408,-5.04914 0.64905,-0.29129 1.30078,-0.54858 1.95441,-0.77072 l 0.004,-0.001"
       id="path167"
       inkscape:connector-curvature="0"
       style="fill-rule:evenodd;stroke:#000000;stroke-width:1;stroke-linecap:butt;stroke-linejoin:round" />
    <path
       d="m 531.35,354.3247 4.19342,-2.39536 -4.75207,-0.86053 z"
       id="path169"
       inkscape:connector-curvature="0"
       style="fill:#000000;fill-rule:evenodd;stroke:#000000;stroke-width:1;stroke-linecap:butt" />
    <path
       d="m 536.92126,510.76874 c -37.36899,0 -83.70816,-70.8952 -74.73795,-131.58978 8.97025,-60.69461 73.24991,-111.18863 142.01462,-131.58978 68.76477,-20.40115 142.01465,-10.70944 142.01465,-21.41887"
       id="path171"
       inkscape:connector-curvature="0"
       style="fill:#000000;fill-opacity:0;fill-rule:evenodd" />
    <path
       d="m 536.92126,510.76874 c -37.36899,0 -83.70816,-70.89517 -74.73795,-131.58981 8.97022,-60.69458 73.24985,-111.1886 142.01462,-131.58975 34.38239,-10.20058 69.88605,-12.87793 96.79413,-14.34383 13.45404,-0.73295 24.75916,-1.16304 32.70075,-2.0792 1.98541,-0.22905 3.76062,-0.48848 5.30664,-0.79062 0.77301,-0.15107 1.48865,-0.31282 2.14471,-0.48679 l 0.29615,-0.0818"
       id="path173"
       inkscape:connector-curvature="0"
       style="fill-rule:evenodd;stroke:#000000;stroke-width:1;stroke-linecap:butt;stroke-linejoin:round" />
    <path
       d="m 742.4414,231.12071 2.6084,-4.06435 -4.61066,1.43683 z"
       id="path175"
       inkscape:connector-curvature="0"
       style="fill:#000000;fill-rule:evenodd;stroke:#000000;stroke-width:1;stroke-linecap:butt" />
    <path
       d="m 536.92126,510.76874 c -68.04724,0 -136.09448,-142.6142 -136.09448,-285.22836"
       id="path177"
       inkscape:connector-curvature="0"
       style="fill:#000000;fill-opacity:0;fill-rule:evenodd" />
    <path
       d="m 536.92126,510.76874 c -34.02362,0 -68.04724,-35.65353 -93.56497,-89.13385 -12.75885,-26.74017 -23.39124,-57.93701 -30.83389,-91.36221 -3.72135,-16.71259 -6.64527,-33.9823 -8.63883,-51.53052 -0.99676,-8.77414 -1.76098,-17.61789 -2.276,-26.49644 -0.25751,-4.43929 -0.45267,-8.88726 -0.58356,-13.3396 -0.0654,-2.22618 -0.11468,-4.45345 -0.14767,-6.68123 l -0.009,-0.68465"
       id="path179"
       inkscape:connector-curvature="0"
       style="fill-rule:evenodd;stroke:#000000;stroke-width:1;stroke-linecap:butt;stroke-linejoin:round" />
    <path
       d="m 402.51917,231.52904 -1.68246,-4.52679 -1.62092,4.54919 z"
       id="path181"
       inkscape:connector-curvature="0"
       style="fill:#000000;fill-rule:evenodd;stroke:#000000;stroke-width:1;stroke-linecap:butt" />
    <path
       d="m 734.5906,510.76874 c 12.5,0 24.99213,-39.77167 25,-79.54334 0.008,-39.77163 -12.46851,-79.5433 -24.93701,-79.5433"
       id="path183"
       inkscape:connector-curvature="0"
       style="fill:#000000;fill-opacity:0;fill-rule:evenodd" />
    <path
       d="m 734.5906,510.76874 c 12.5,0 24.99213,-39.77164 25,-79.5433 0.004,-19.88584 -3.11322,-39.77164 -7.78992,-54.68604 -2.33831,-7.45718 -5.06659,-13.67148 -7.9895,-18.02151 -0.73071,-1.08753 -1.47357,-2.05848 -2.22559,-2.90326 -0.37603,-0.42237 -0.75427,-0.81321 -1.13446,-1.17127 -0.095,-0.0895 -0.1903,-0.17694 -0.28552,-0.26239 l -0.0409,-0.0357"
       id="path185"
       inkscape:connector-curvature="0"
       style="fill-rule:evenodd;stroke:#000000;stroke-width:1;stroke-linecap:butt;stroke-linejoin:round" />
    <path
       d="m 740.80273,352.6391 -4.81616,-0.35684 3.46002,3.36911 z"
       id="path187"
       inkscape:connector-curvature="0"
       style="fill:#000000;fill-rule:evenodd;stroke:#000000;stroke-width:1;stroke-linecap:butt" />
  </g>
</svg>
